<?xml version="1.0" standalone="no"?>
<!DOCTYPE svg PUBLIC "-//W3C//DTD SVG 20010904//EN"
 "http://www.w3.org/TR/2001/REC-SVG-20010904/DTD/svg10.dtd">
<svg version="1.0" xmlns="http://www.w3.org/2000/svg"
 width="836.000000pt" height="836.000000pt" viewBox="0 0 836.000000 836.000000"
 preserveAspectRatio="xMidYMid meet">
<metadata>
Created by potrace 1.14, written by Peter Selinger 2001-2017
</metadata>
<g transform="translate(0.000000,836.000000) scale(0.100000,-0.100000)"
fill="#000000" stroke="none">
<path d="M0 4180 l0 -4180 4180 0 4180 0 0 4180 0 4180 -4180 0 -4180 0 0
-4180z m4806 3541 c88 -19 221 -70 299 -115 73 -42 152 -66 220 -66 35 0 66 3
69 8 2 4 -33 28 -80 52 -46 25 -84 48 -84 53 0 4 39 7 86 7 70 0 95 -4 137
-25 52 -24 62 -34 290 -279 75 -81 222 -194 235 -181 3 3 15 -1 27 -9 12 -8
44 -18 71 -22 27 -4 64 -13 83 -21 18 -8 39 -12 47 -9 7 3 28 0 46 -5 18 -6
74 -13 123 -15 50 -3 103 -9 119 -14 16 -6 42 -10 57 -10 16 0 29 -4 29 -10 0
-5 6 -10 14 -10 8 0 22 -7 30 -16 9 -9 16 -11 16 -4 0 20 20 0 40 -40 21 -41
26 -113 11 -152 -28 -72 -45 -108 -51 -108 -3 0 -17 -21 -30 -47 -13 -27 -46
-71 -74 -99 -28 -27 -60 -69 -71 -92 -11 -23 -23 -42 -27 -42 -4 0 -17 -21
-29 -47 -12 -27 -25 -50 -29 -53 -4 -3 -22 -30 -41 -60 -59 -98 -279 -310
-322 -310 -8 0 -20 -7 -27 -15 -17 -20 -79 -49 -87 -41 -4 4 1 19 10 34 10 15
26 43 35 62 9 19 20 37 25 38 4 2 7 12 7 23 0 10 3 19 8 19 4 0 16 18 26 40
11 23 26 40 36 40 18 0 44 51 55 108 4 18 11 30 15 27 5 -3 12 10 15 29 8 39
-14 93 -35 88 -7 -2 -16 1 -19 7 -7 11 -164 32 -252 34 -43 1 -63 -4 -87 -22
-18 -12 -32 -26 -32 -31 0 -22 -127 -186 -182 -235 -91 -81 -153 -130 -188
-151 -42 -24 -100 -38 -100 -24 0 6 5 10 10 10 6 0 10 9 10 19 0 10 7 21 15
24 8 3 23 26 35 51 11 25 30 50 41 57 26 14 99 166 99 207 0 53 -28 60 -135
37 -16 -3 -73 -15 -125 -27 -52 -11 -105 -24 -118 -29 -13 -5 -40 -9 -62 -9
-21 0 -41 -4 -44 -9 -7 -10 -189 -24 -316 -24 -87 0 -147 8 -255 31 -46 10
-177 75 -195 97 -14 16 -57 20 -78 6 -22 -13 39 -122 102 -184 63 -62 131
-117 144 -117 4 0 19 -11 32 -25 13 -14 28 -25 34 -25 6 0 35 -18 64 -40 29
-22 56 -40 60 -40 4 0 25 -18 47 -40 22 -21 45 -39 51 -40 6 0 19 -9 29 -20
10 -11 23 -20 30 -20 7 0 20 -9 30 -20 10 -11 23 -20 30 -20 7 0 20 -10 31
-21 10 -12 37 -34 59 -49 22 -16 81 -69 130 -119 61 -62 97 -91 113 -91 32 0
39 27 13 54 -11 12 -21 26 -21 30 0 16 -142 176 -206 232 -37 32 -88 78 -114
102 -26 23 -51 42 -56 42 -5 0 -34 24 -63 54 -31 31 -59 52 -67 49 -8 -3 -14
-1 -14 5 0 5 37 12 83 14 83 5 420 50 512 68 81 17 80 17 77 -5 -5 -36 -84
-184 -118 -221 -19 -20 -34 -40 -34 -44 0 -4 -7 -13 -15 -20 -21 -17 -45 -69
-45 -97 0 -36 5 -35 193 37 73 29 94 21 103 -35 3 -25 10 -45 15 -45 5 0 9
-17 9 -37 0 -21 9 -53 20 -71 11 -18 18 -37 15 -42 -3 -5 2 -15 10 -23 8 -9
15 -22 15 -31 0 -8 9 -22 21 -30 12 -8 18 -19 15 -25 -4 -6 0 -18 9 -28 8 -10
33 -39 55 -64 22 -25 40 -50 40 -55 0 -5 41 -49 91 -98 49 -48 88 -90 85 -93
-2 -3 9 -20 26 -39 17 -18 36 -44 43 -57 17 -32 26 -95 14 -102 -5 -4 -9 -24
-9 -45 0 -32 7 -46 38 -76 20 -20 49 -42 65 -50 15 -8 27 -19 27 -24 0 -15
-40 -11 -100 10 -64 23 -90 25 -91 8 -4 -87 -4 -96 9 -86 9 8 12 5 12 -11 0
-14 -4 -20 -11 -15 -6 3 -15 1 -19 -6 -5 -8 -15 -2 -31 20 -13 18 -58 68 -99
112 -73 77 -74 80 -55 95 20 15 20 15 -1 9 -17 -5 -28 1 -45 24 -13 17 -34 43
-46 59 -13 16 -23 33 -23 38 0 6 -9 18 -20 28 -11 10 -20 23 -20 30 0 7 -9 20
-20 30 -11 10 -20 23 -20 30 0 7 -9 20 -21 31 -11 10 -18 26 -16 36 3 9 1 16
-4 15 -5 -1 -15 9 -22 23 -7 14 -23 27 -36 28 -21 3 -23 1 -18 -30 12 -73 25
-118 41 -142 9 -14 16 -34 16 -45 0 -11 5 -23 10 -26 8 -5 7 -12 -2 -23 -11
-13 -11 -15 3 -10 8 3 26 -3 40 -13 13 -10 20 -19 15 -19 -5 0 -1 -9 9 -20 16
-18 16 -20 1 -26 -30 -12 -270 61 -259 79 4 7 0 8 -11 4 -20 -8 -121 38 -192
85 -23 16 -46 28 -51 28 -6 0 -18 9 -28 20 -10 11 -23 20 -29 20 -6 0 -25 14
-43 30 -18 17 -39 30 -47 30 -8 0 -20 9 -26 20 -6 11 -17 20 -24 20 -8 0 -20
7 -27 16 -8 9 -30 27 -49 39 -19 13 -45 32 -57 44 -12 12 -26 21 -31 21 -5 0
-17 9 -27 20 -10 11 -23 20 -29 21 -6 0 -31 16 -56 34 -65 49 -315 171 -422
206 -51 17 -102 36 -113 43 -11 7 -42 18 -70 26 -27 7 -54 17 -60 21 -5 5 -24
9 -41 9 -18 0 -36 5 -39 10 -7 12 -125 14 -125 2 0 -14 23 -32 42 -32 10 0 18
-4 18 -9 0 -5 -48 -9 -106 -10 -59 -1 -110 -4 -114 -6 -4 -3 -25 -7 -46 -11
-48 -7 -109 -21 -149 -35 -48 -18 -155 -73 -155 -81 0 -5 -6 -8 -13 -8 -18 0
-68 -56 -95 -106 -19 -35 -22 -58 -22 -142 0 -94 4 -116 34 -182 32 -72 182
-245 261 -302 22 -16 56 -44 75 -61 19 -18 62 -52 95 -77 62 -46 119 -91 145
-114 8 -7 37 -26 65 -41 75 -41 130 -81 158 -115 14 -16 33 -30 41 -30 9 0 16
-4 16 -10 0 -5 9 -10 21 -10 12 0 23 -8 26 -20 5 -19 20 -25 51 -21 6 1 12 -3
12 -9 0 -14 37 -50 52 -50 7 0 22 -10 33 -23 11 -13 48 -40 82 -61 34 -21 70
-47 79 -57 9 -10 22 -19 29 -19 6 0 24 -13 40 -30 16 -16 35 -30 42 -30 7 0
13 -4 13 -10 0 -5 6 -10 14 -10 8 0 38 -22 68 -50 29 -27 57 -50 62 -50 5 0
44 -33 86 -72 43 -40 108 -102 146 -138 72 -68 138 -139 189 -204 17 -21 50
-62 75 -91 25 -29 55 -70 66 -91 92 -168 114 -211 114 -222 0 -10 -95 -12
-480 -12 -264 1 -479 -1 -477 -5 1 -4 217 -6 479 -5 l477 1 7 -28 c3 -15 8
-35 12 -43 3 -8 7 -22 8 -30 2 -8 10 -51 18 -95 10 -50 15 -148 16 -270 2
-226 -4 -257 -99 -505 -27 -69 -26 -71 4 -30 41 55 29 29 -44 -98 -76 -131
-159 -231 -174 -210 -5 8 -6 4 -2 -10 6 -21 -10 -40 -113 -140 -172 -168 -252
-233 -275 -226 -13 4 -17 2 -12 -6 7 -12 -21 -39 -42 -40 -8 0 -8 6 0 24 7 13
15 22 19 20 3 -2 9 0 13 6 3 5 14 10 23 10 9 0 28 16 41 36 16 23 29 33 40 29
8 -3 13 -3 9 0 -3 3 12 23 34 44 27 27 35 41 26 45 -7 3 -3 3 10 0 15 -4 24 0
28 11 4 9 13 14 20 11 8 -3 11 0 7 10 -6 16 30 57 41 47 3 -4 6 1 6 10 0 8 18
28 40 44 22 15 40 35 40 43 0 8 9 21 21 28 14 9 18 19 14 35 -7 22 -7 22 9 2
15 -20 15 -19 16 8 0 15 4 27 9 27 16 0 61 46 60 61 0 8 -4 5 -9 -6 -7 -16 -9
-17 -9 -3 -1 25 10 48 23 48 13 0 40 39 32 47 -9 9 -27 -8 -20 -19 4 -6 1 -9
-7 -6 -7 2 -26 -8 -41 -24 -34 -35 -61 -37 -56 -6 2 14 11 24 24 26 12 2 29
18 40 38 11 20 26 34 37 34 10 0 21 9 24 20 6 23 14 25 32 7 11 -9 13 -9 7 1
-4 6 -2 12 4 12 6 0 8 5 5 10 -3 6 1 18 11 27 16 16 16 16 10 -7 -6 -19 -5
-21 3 -10 28 40 23 40 -286 38 l-298 -3 -3 -25 c-2 -21 -1 -22 9 -10 9 12 10
11 4 -5 -4 -11 -8 -26 -8 -33 0 -8 -11 -18 -25 -23 -19 -7 -22 -12 -13 -23 10
-11 8 -16 -8 -21 -12 -3 -21 -12 -21 -20 0 -7 -6 -15 -12 -18 -7 -2 -10 -7 -6
-11 3 -4 19 0 35 9 28 17 28 17 5 -2 -18 -15 -20 -21 -10 -31 7 -8 9 -13 3
-12 -22 5 -36 -1 -30 -10 4 -6 1 -17 -5 -25 -7 -8 -10 -24 -7 -35 3 -11 1 -20
-3 -20 -5 0 -10 -6 -13 -13 -2 -6 -3 -3 -1 7 4 25 -13 7 -18 -19 -2 -12 -11
-19 -22 -18 -13 1 -16 -4 -13 -17 5 -20 -17 -35 -36 -23 -7 4 -6 0 1 -10 17
-20 7 -38 -15 -30 -12 5 -15 2 -10 -10 3 -9 1 -19 -5 -23 -6 -4 -8 -3 -4 4 4
6 -1 10 -13 9 -12 -1 -17 -6 -13 -16 4 -10 1 -13 -10 -8 -12 4 -14 1 -11 -14
6 -20 -13 -27 -19 -7 -3 7 -7 5 -11 -6 -4 -9 -3 -15 2 -11 5 3 12 1 16 -4 3
-6 -3 -8 -14 -6 -14 3 -18 -1 -14 -11 3 -8 -4 -24 -16 -35 -12 -11 -19 -25
-15 -30 3 -5 2 -9 -3 -8 -21 4 -44 -2 -39 -9 3 -5 -9 -16 -25 -26 -21 -12 -28
-23 -24 -34 3 -9 3 -13 -1 -9 -4 4 -22 -4 -39 -18 -18 -13 -36 -21 -40 -17 -5
4 -5 -1 -1 -12 5 -13 2 -17 -9 -13 -8 4 -20 -2 -28 -13 -14 -21 -67 -61 -103
-81 -12 -6 -27 -21 -32 -33 -7 -13 -11 -16 -11 -6 -1 10 -6 7 -17 -8 -9 -13
-22 -21 -30 -18 -7 3 -16 0 -20 -6 -4 -6 -3 -8 4 -4 6 3 14 2 17 -4 4 -6 3
-10 -2 -9 -20 4 -27 -2 -13 -12 12 -9 12 -10 -4 -5 -11 4 -22 3 -25 -1 -11
-14 -86 -60 -111 -68 -22 -6 2 13 89 70 8 6 26 22 39 38 13 15 28 25 33 21 5
-3 9 -1 9 4 0 5 19 22 43 37 63 42 223 183 302 266 118 125 225 251 225 265 0
8 5 14 10 14 6 0 10 -6 10 -12 0 -9 3 -8 10 2 5 9 5 17 -1 20 -5 4 7 24 26 45
24 28 31 41 22 47 -17 10 -16 30 1 51 8 9 11 17 7 17 -4 0 -1 8 8 18 10 10 14
22 10 25 -3 4 5 7 18 7 15 0 19 3 12 8 -9 6 -2 37 27 121 39 109 40 118 40
242 0 71 -4 137 -9 147 -5 9 -15 37 -22 62 -7 25 -16 49 -21 55 -4 5 -8 18 -8
30 0 29 -68 131 -124 185 -25 24 -46 49 -46 55 0 14 -82 95 -96 95 -16 0 -55
45 -47 54 5 4 3 6 -3 4 -6 -2 -31 14 -55 35 -117 100 -161 136 -233 187 -42
30 -109 79 -149 108 -40 30 -85 59 -102 67 -16 7 -41 24 -54 39 -14 14 -30 26
-36 26 -6 0 -24 14 -38 30 -15 17 -32 30 -39 30 -6 0 -20 9 -32 20 -26 25
-196 138 -252 167 -23 12 -72 44 -110 71 -38 28 -109 74 -159 102 -49 28 -95
60 -103 71 -7 10 -20 19 -28 19 -8 0 -14 4 -14 8 0 8 -82 52 -132 71 -16 6
-28 15 -28 20 0 5 -16 19 -36 32 -20 12 -48 33 -62 45 -14 13 -30 24 -36 24
-6 0 -18 9 -26 20 -8 11 -22 20 -31 20 -17 0 -49 30 -33 30 5 1 -3 8 -18 16
-16 8 -28 19 -28 24 0 6 -5 10 -11 10 -6 0 -28 14 -49 30 -21 17 -41 30 -46
30 -4 0 -38 28 -75 63 -37 34 -100 91 -140 127 -39 36 -82 81 -94 100 -12 19
-34 46 -49 60 -15 14 -43 47 -64 74 -20 27 -49 66 -64 85 -15 20 -31 42 -35
50 -3 8 -26 44 -50 80 -46 68 -113 201 -113 223 0 7 -9 28 -20 46 -11 18 -20
46 -20 62 0 16 -4 31 -9 35 -6 3 -9 23 -8 44 2 22 -2 39 -8 38 -21 -4 -46 286
-26 306 6 6 11 21 11 34 0 99 130 415 199 484 17 17 31 35 31 40 0 14 229 241
272 269 21 14 38 31 38 38 0 7 8 12 19 10 11 -2 29 10 45 30 15 17 36 32 47
32 10 0 19 4 19 8 0 4 15 13 33 20 17 6 70 34 117 62 47 27 93 50 102 50 10 0
18 4 18 9 0 9 372 136 435 147 22 5 46 7 54 5 8 -1 17 1 20 6 9 13 120 36 166
36 22 -1 42 3 45 7 3 5 23 10 45 11 22 1 47 6 56 10 9 5 41 13 70 18 30 5 81
16 113 25 32 9 61 14 64 11 3 -3 15 1 26 9 12 7 37 17 56 21 42 9 240 103 240
114 0 8 134 72 146 70 4 0 10 3 13 9 9 13 275 142 294 142 9 0 18 4 21 9 3 5
20 11 38 14 76 13 98 20 98 28 0 5 18 9 39 9 22 0 43 5 46 10 3 6 27 10 53 11
26 0 56 4 67 9 36 16 189 11 281 -9z m-139 -5577 c-3 -3 -12 -4 -19 -1 -8 3
-5 6 6 6 11 1 17 -2 13 -5z m171 -1 c-26 -2 -71 -2 -100 0 -29 2 -8 3 47 3 55
0 79 -1 53 -3z m22 -33 c0 -5 -7 -7 -15 -4 -8 4 -15 8 -15 10 0 2 7 4 15 4 8
0 15 -4 15 -10z m-127 -325 c-3 -9 -8 -14 -10 -11 -3 3 -2 9 2 15 9 16 15 13
8 -4z m-409 -397 c-23 -40 -60 -65 -47 -31 5 12 3 14 -7 8 -9 -6 -11 -4 -6 4
5 7 14 10 21 7 8 -3 19 2 25 10 15 17 24 19 14 2z m-80 -67 c-24 -21 -84 -51
-84 -43 0 13 45 42 65 42 8 0 15 8 16 18 0 11 2 13 6 4 3 -8 1 -17 -3 -21z
m-107 -76 c-8 -8 -17 -11 -21 -8 -11 11 -6 23 9 23 8 0 16 8 16 18 1 16 2 16
6 0 2 -10 -2 -25 -10 -33z m-41 -13 c-5 -14 -13 -18 -26 -15 -11 3 -20 9 -20
13 0 5 9 6 20 3 14 -4 20 0 20 13 0 9 3 15 6 11 3 -3 3 -14 0 -25z m-50 -20
c7 -5 5 -12 -6 -23 -13 -12 -18 -13 -29 -2 -9 10 -8 13 6 13 15 0 16 2 3 10
-13 9 -13 10 0 10 8 0 20 -4 26 -8z m-58 -57 c-32 -29 -35 -30 -35 -10 0 8 9
15 19 15 10 0 18 5 18 10 0 6 6 10 12 10 7 0 1 -11 -14 -25z m-558 -34 c-8 -5
-31 -12 -50 -16 -38 -7 -140 -64 -140 -78 0 -4 -3 -6 -8 -3 -4 2 -25 -9 -47
-24 -51 -37 -173 -104 -195 -107 -21 -3 -162 -83 -172 -97 -4 -6 -8 -7 -8 -3
0 8 -110 -45 -139 -67 -7 -6 -18 -11 -25 -12 -7 -1 -32 -11 -56 -23 -24 -11
-45 -19 -47 -18 -1 2 76 44 172 93 96 49 205 105 242 125 37 21 91 48 119 62
27 13 73 40 101 60 65 46 163 95 211 106 49 12 60 12 42 2z m410 -36 c-22 -27
-80 -49 -93 -36 -8 8 -4 11 19 11 23 0 26 2 14 11 -12 8 -11 9 6 5 11 -4 29 1
40 9 25 19 30 19 14 0z m-740 -329 c0 -2 -7 -7 -16 -10 -8 -3 -12 -2 -9 4 6
10 25 14 25 6z m-203 -82 c-3 -3 -12 -4 -19 -1 -8 3 -5 6 6 6 11 1 17 -2 13
-5z m-401 -29 c-8 -8 -25 -15 -38 -15 l-23 1 25 14 c35 20 56 20 36 0z m281
-1 c-3 -3 -12 -4 -19 -1 -8 3 -5 6 6 6 11 1 17 -2 13 -5z m-116 -30 c-18 -8
-47 -17 -65 -20 -22 -4 -17 0 19 15 58 22 96 27 46 5z m-177 -9 c-10 -8 -23
-15 -28 -15 -6 0 -1 7 10 15 10 8 23 15 28 15 6 0 1 -7 -10 -15z m-29 -35 c-3
-5 1 -11 7 -13 7 -3 -2 -6 -19 -7 -35 -3 -39 -3 -63 -12 -8 -3 -33 -11 -55
-16 -22 -6 -51 -14 -64 -18 -16 -4 -21 -3 -17 5 4 6 15 11 24 11 10 0 28 7 40
16 13 9 32 14 43 11 12 -3 27 3 40 16 17 19 19 19 13 3 -6 -16 -5 -17 15 -7
12 7 19 16 16 21 -3 6 1 7 9 4 9 -3 14 -10 11 -14z m78 3 c-7 -2 -19 -2 -25 0
-7 3 -2 5 12 5 14 0 19 -2 13 -5z"/>
<path d="M4470 7523 c-40 -5 -100 -30 -100 -42 0 -5 -13 -14 -28 -19 -37 -13
-78 -85 -58 -101 10 -9 30 -3 79 24 84 45 103 45 122 -1 8 -20 15 -45 15 -55
0 -11 7 -19 15 -19 8 0 15 -9 15 -19 0 -11 15 -30 33 -42 17 -13 38 -29 45
-36 9 -9 47 -13 120 -13 89 0 113 3 142 20 19 11 46 26 60 32 14 7 28 16 31
21 3 4 18 3 33 -3 42 -15 165 -13 182 4 20 21 18 26 -15 26 -16 0 -31 3 -33 8
-5 11 -358 178 -413 195 -53 16 -186 27 -245 20z"/>
<path d="M1665 5050 c-3 -5 0 -10 7 -10 87 -4 1323 2 1326 5 6 6 74 5 -665 8
-402 1 -614 -1 -617 -8 -2 -6 -9 -5 -17 3 -16 15 -26 15 -34 2z"/>
<path d="M5140 5049 c0 -5 9 -9 20 -9 11 0 20 2 20 4 0 2 -9 6 -20 9 -11 3
-20 1 -20 -4z"/>
<path d="M5487 5048 c5 -10 272 -9 295 0 10 4 -54 7 -141 7 -88 0 -157 -3
-154 -7z"/>
<path d="M5190 5039 c0 -5 5 -7 10 -4 6 3 10 8 10 11 0 2 -4 4 -10 4 -5 0 -10
-5 -10 -11z"/>
<path d="M5250 5040 c0 -4 7 -7 15 -6 23 3 26 12 5 13 -11 1 -20 -2 -20 -7z"/>
<path d="M4280 2990 c0 -5 5 -10 11 -10 5 0 7 5 4 10 -3 6 -8 10 -11 10 -2 0
-4 -4 -4 -10z"/>
<path d="M3929 1493 l-24 -28 28 24 c15 14 27 26 27 28 0 8 -8 1 -31 -24z"/>
</g>
</svg>
